<svg width="44" height="44" viewBox="0 0 44 44" fill="none" xmlns="http://www.w3.org/2000/svg">
<path fill-rule="evenodd" clip-rule="evenodd" d="M22 31C26.9706 31 31 26.9706 31 22C31 17.0294 26.9706 13 22 13C17.0294 13 13 17.0294 13 22C13 26.9706 17.0294 31 22 31ZM23.7236 26.6377L23.874 26.0225C23.7965 26.0589 23.6712 26.1022 23.498 26.1523C23.3249 26.1979 23.1699 26.2207 23.0332 26.2207C22.7415 26.2207 22.5365 26.1729 22.418 26.0771C22.2995 25.9814 22.2402 25.8014 22.2402 25.5371C22.2402 25.4323 22.2585 25.2773 22.2949 25.0723C22.3314 24.8672 22.3724 24.6849 22.418 24.5254L22.9785 22.5361C23.0332 22.3538 23.0697 22.1533 23.0879 21.9346C23.1107 21.7158 23.1221 21.5632 23.1221 21.4766C23.1221 21.0573 22.974 20.7178 22.6777 20.458C22.3861 20.1937 21.9691 20.0615 21.4268 20.0615C21.126 20.0615 20.807 20.1162 20.4697 20.2256C20.1325 20.3304 19.7793 20.458 19.4102 20.6084L19.2598 21.2236C19.3691 21.1826 19.499 21.1393 19.6494 21.0938C19.8044 21.0482 19.9548 21.0254 20.1006 21.0254C20.3968 21.0254 20.5973 21.0755 20.7021 21.1758C20.807 21.276 20.8594 21.4538 20.8594 21.709C20.8594 21.8503 20.8411 22.0075 20.8047 22.1807C20.7728 22.3493 20.7318 22.5293 20.6816 22.7207L20.1211 24.7168C20.071 24.9264 20.0345 25.1156 20.0117 25.2842C19.9889 25.4482 19.9775 25.61 19.9775 25.7695C19.9775 26.1797 20.1279 26.5192 20.4287 26.7881C20.734 27.0524 21.1602 27.1846 21.707 27.1846C22.0625 27.1846 22.3747 27.1367 22.6436 27.041C22.9124 26.9499 23.2725 26.8154 23.7236 26.6377ZM23.6211 18.5645C23.8854 18.3184 24.0176 18.0221 24.0176 17.6758C24.0176 17.3294 23.8854 17.0332 23.6211 16.7871C23.3613 16.541 23.0469 16.418 22.6777 16.418C22.3086 16.418 21.9919 16.541 21.7275 16.7871C21.4632 17.0332 21.3311 17.3294 21.3311 17.6758C21.3311 18.0221 21.4632 18.3184 21.7275 18.5645C21.9919 18.806 22.3086 18.9268 22.6777 18.9268C23.0469 18.9268 23.3613 18.806 23.6211 18.5645Z" fill="#B0B4BE"/>
</svg>
