<svg width="36" height="20" viewBox="0 0 36 20" fill="none" xmlns="http://www.w3.org/2000/svg">
<path d="M7.07942 14.047C6.30326 14.6822 5.3069 15 4.09036 15C3.19861 15 2.42793 14.8815 1.77769 14.6436C1.12744 14.4062 0.534985 14.0055 0 13.442L1.41576 11.9503C2.04534 12.6133 2.94193 12.9447 4.10618 12.9447C4.7561 12.9447 5.2517 12.8176 5.59264 12.5635C5.93391 12.3092 6.10405 11.9449 6.10405 11.4696C6.10405 11.061 5.98879 10.7349 5.75795 10.4917C5.55874 10.2928 5.22296 10.1602 4.75126 10.0939L3.41396 9.87845C2.4699 9.73469 1.74637 9.4086 1.2427 8.90055C0.708039 8.34819 0.440386 7.57459 0.440386 6.58011C0.440386 5.50817 0.791661 4.64377 1.49453 3.98619C2.19741 3.32861 3.1463 3 4.34219 3C5.85222 3 7.05876 3.45868 7.96052 4.37569L6.57608 5.81768C6.05175 5.27612 5.28592 5.00552 4.27923 5.00552C3.72294 5.00552 3.29869 5.14641 3.00489 5.42818C2.71141 5.70994 2.5645 6.0663 2.5645 6.49724C2.5645 6.85071 2.66943 7.13248 2.87897 7.34254C3.12015 7.57458 3.4611 7.72376 3.90148 7.79005L5.23878 8.00552C6.19349 8.14929 6.90637 8.45844 7.3784 8.9337C7.95535 9.49724 8.24367 10.326 8.24367 11.4199C8.24367 12.5358 7.85591 13.4117 7.07942 14.047Z" fill="#666C7B"/>
<path fill-rule="evenodd" clip-rule="evenodd" d="M15.8109 13.9392C15.1604 14.6465 14.3112 15 13.2623 15C12.2239 15 11.3796 14.6465 10.7294 13.9392C10.3804 13.5555 10.1285 13.0852 9.99779 12.5718C9.8667 12.058 9.80116 11.3925 9.80116 10.5746C9.80116 9.75666 9.8667 9.09368 9.99779 8.58563C10.1289 8.07723 10.3726 7.62431 10.7294 7.22652C11.3796 6.51922 12.2239 6.16575 13.2623 6.16575C14.3319 6.16575 15.1817 6.51922 15.8109 7.22652C16.1677 7.62431 16.4115 8.07759 16.5425 8.58563C16.6733 9.09368 16.7392 9.75666 16.7392 10.5746C16.7392 11.4033 16.6733 12.0746 16.5425 12.5884C16.4137 13.0978 16.1616 13.5633 15.8109 13.9392ZM12.3182 12.6796C12.5594 12.9336 12.8742 13.0608 13.2623 13.0608C13.661 13.0608 13.981 12.9336 14.2218 12.6796C14.5366 12.3592 14.6938 11.6573 14.6938 10.5746C14.6938 9.50264 14.5366 8.80687 14.2218 8.48619C13.9803 8.23216 13.6607 8.10497 13.2623 8.10497C12.8742 8.10497 12.5594 8.23216 12.3182 8.48619C12.0037 8.80651 11.8465 9.50264 11.8465 10.5746C11.8465 11.6573 12.0037 12.3589 12.3182 12.6796Z" fill="#666C7B"/>
<path d="M22.1668 13.0773V14.9006H21.0026C20.2158 14.9006 19.6204 14.6577 19.2168 14.1713C18.8129 13.6848 18.6111 13.1047 18.6111 12.4309V3.09945H20.6565V12.2983C20.6565 12.8179 20.898 13.0773 21.38 13.0773H22.1668Z" fill="#666C7B"/>
<path d="M26.19 6.51381V14.9006H24.1447V6.51381H26.19Z" fill="#666C7B"/>
<path fill-rule="evenodd" clip-rule="evenodd" d="M33.0021 14.0884C32.4881 14.6962 31.8114 15 30.9726 15C30.1125 15 29.4464 14.7402 28.9747 14.221C28.618 13.8344 28.3874 13.3537 28.2825 12.779C28.1773 12.2043 28.1249 11.4696 28.1249 10.5746C28.1249 9.69073 28.1773 8.96145 28.2825 8.38674C28.3874 7.81203 28.618 7.33137 28.9747 6.94475C29.4464 6.42517 30.1073 6.16575 30.9568 6.16575C31.7959 6.16575 32.462 6.45292 32.955 7.02762V3.09945H35V14.9006H33.0021V14.0884ZM30.8231 12.8785C31.0172 12.9999 31.2609 13.0608 31.5547 13.0608C31.8485 13.0608 32.0923 12.9999 32.2863 12.8785C32.4801 12.7567 32.6244 12.5747 32.719 12.3315C32.8142 12.0846 32.8778 11.8254 32.9075 11.5608C32.9392 11.2902 32.955 10.9612 32.955 10.5746C32.955 9.76783 32.8633 9.15458 32.6796 8.73481C32.4959 8.31504 32.121 8.10497 31.5547 8.10497C31.2609 8.10497 31.0172 8.16586 30.8231 8.28729C30.6294 8.40908 30.4873 8.59104 30.3982 8.83425C30.3094 9.07699 30.2484 9.33023 30.2174 9.5884C30.1861 9.84819 30.1703 10.1768 30.1703 10.5746C30.1703 10.9724 30.1861 11.3013 30.2174 11.5608C30.2491 11.8215 30.3098 12.0774 30.3982 12.3232C30.4877 12.5718 30.6294 12.757 30.8231 12.8785Z" fill="#666C7B"/>
<path d="M26.2058 3.03321V4.79011H24.1134V3.03321H26.2058Z" fill="#666C7B"/>
</svg>
